<svg xmlns="http://www.w3.org/2000/svg" width="512" height="512" viewBox="0 0 512 512">
  <!-- Background Circle -->
  <circle cx="256" cy="256" r="248" fill="#2a2a2a" />
  <circle cx="256" cy="256" r="230" fill="#1a1a1a" />
  
  <!-- Film Reel Elements -->
  <g transform="translate(256 256)">
    <!-- Main Film Reel -->
    <circle cx="0" cy="0" r="160" fill="#f59e0b" fill-opacity="0.85" />
    <circle cx="0" cy="0" r="130" fill="#1a1a1a" />
    
    <!-- Film Perforations -->
    <circle cx="0" cy="-100" r="20" fill="#1a1a1a" />
    <circle cx="70.7" cy="-70.7" r="20" fill="#1a1a1a" />
    <circle cx="100" cy="0" r="20" fill="#1a1a1a" />
    <circle cx="70.7" cy="70.7" r="20" fill="#1a1a1a" />
    <circle cx="0" cy="100" r="20" fill="#1a1a1a" />
    <circle cx="-70.7" cy="70.7" r="20" fill="#1a1a1a" />
    <circle cx="-100" cy="0" r="20" fill="#1a1a1a" />
    <circle cx="-70.7" cy="-70.7" r="20" fill="#1a1a1a" />
    
    <!-- Stylized 'M' Logo -->
    <path d="M-40,-20 L-40,50 L-20,50 L-20,0 L0,30 L20,0 L20,50 L40,50 L40,-20 L20,-20 L0,20 L-20,-20 Z" fill="#ffffff" />
  </g>
</svg>
